<svg xmlns="http://www.w3.org/2000/svg" viewBox="0 0 400 400" width="100%" height="100%">
      <defs>
        <linearGradient id="g9" x1="0%" y1="0%" x2="100%" y2="100%">
          <stop offset="0%" style="stop-color:#6366f1;stop-opacity:1" />
          <stop offset="100%" style="stop-color:#a855f7;stop-opacity:1" />
        </linearGradient>
      </defs>
      <rect width="100%" height="100%" fill="url(#g9)"/>
      <!-- Keyboard Frame -->
      <rect x="60" y="120" width="280" height="160" rx="10" fill="#0f172a" stroke="#ffffff" stroke-width="4"/>
      <!-- Key rows -->
      <rect x="75" y="135" width="35" height="20" rx="3" fill="#312e81" stroke="#818cf8" stroke-width="1.5"/>
      <rect x="115" y="135" width="35" height="20" rx="3" fill="#312e81" stroke="#818cf8" stroke-width="1.5"/>
      <rect x="155" y="135" width="35" height="20" rx="3" fill="#312e81" stroke="#818cf8" stroke-width="1.5"/>
      <rect x="195" y="135" width="35" height="20" rx="3" fill="#312e81" stroke="#818cf8" stroke-width="1.5"/>
      <rect x="235" y="135" width="35" height="20" rx="3" fill="#312e81" stroke="#818cf8" stroke-width="1.5"/>
      <rect x="275" y="135" width="50" height="20" rx="3" fill="#ec4899" stroke="#ffffff" stroke-width="1.5"/>
      
      <!-- Row 2 Spacebar -->
      <rect x="75" y="165" width="50" height="20" rx="3" fill="#4338ca" stroke="#818cf8" stroke-width="1"/>
      <rect x="130" y="165" width="140" height="20" rx="3" fill="#a855f7" stroke="#ffffff" stroke-width="1.5"/>
      <rect x="275" y="165" width="50" height="20" rx="3" fill="#4338ca" stroke="#818cf8" stroke-width="1"/>
      
      <text x="50%" y="58%" dominant-baseline="middle" text-anchor="middle" fill="#ffffff" font-family="sans-serif" font-size="18" font-weight="bold">VoltGrid</text>
    </svg>